<svg id="kity_svg_4" xmlns="http://www.w3.org/2000/svg" xmlns:xlink="http://www.w3.org/1999/xlink" version="1.1" width="1111" height="799" contenteditable="true" class="loading-target" style="font-family: Arial, &quot;Microsoft Yahei&quot;,  &quot;Heiti SC&quot;; background: #fbfbfb" viewBox="232 -25 1111 799"><defs id="kity_defs_5"><linearGradient id="kity_linearGradient_10" x1="0" y1="0" x2="0" y2="1"><stop id="kity_stop_11" offset="0" stop-color="rgb(255, 255, 255)"></stop><stop id="kity_stop_12" offset="1" stop-color="rgb(204, 204, 204)"></stop></linearGradient><marker id="kity_marker_0" orient="auto" refX="6" refY="0" viewBox="-7 -7 14 14" markerWidth="7" markerHeight="7" markerUnits="userSpaceOnUse"><path id="kity_path_1" fill="rgb(115, 161, 191)" stroke="none" d="M6,0A6,6,0,1,1,-6,0A6,6,0,1,1,6,0"></path></marker></defs><g id="kity_g_6" transform="translate(0.5, 0.5)"><g id="minder_1" text-rendering="optimize-speed" transform="translate( 813 391 )"><g id="minder_connect_group_1"><path id="kity_path_32" fill="none" stroke="rgb(115, 161, 191)" stroke-width="1" marker-end="url(#kity_marker_0)" d="M27 0A169,0,0,0,1,196 0" transform="translate( 0 0 )"></path><path id="kity_path_34" fill="none" stroke="rgb(115, 161, 191)" stroke-width="1" d="M284 0C299,0,299,-246,314 -246L390 -246" transform="translate( 0 0 )"></path><path id="kity_path_36" fill="none" stroke="rgb(115, 161, 191)" stroke-width="1" d="M284 0C299,0,299,-194,314 -194L389 -194" transform="translate( 0 0 )"></path><path id="kity_path_38" fill="none" stroke="rgb(115, 161, 191)" stroke-width="1" d="M284 0C299,0,299,-142,314 -142L385 -142" transform="translate( 0 0 )"></path><path id="kity_path_40" fill="none" stroke="rgb(115, 161, 191)" stroke-width="1" d="M284 0C299,0,299,-12,314 -12L374 -12" transform="translate( 0 0 )"></path><path id="kity_path_42" fill="none" stroke="rgb(115, 161, 191)" stroke-width="1" d="M374 -12C389,-12,389,-90,404 -90L510 -90" transform="translate( 0 0 )"></path><path id="kity_path_44" fill="none" stroke="rgb(115, 161, 191)" stroke-width="1" d="M374 -12C389,-12,389,-38,404 -38L497 -38" transform="translate( 0 0 )"></path><path id="kity_path_46" fill="none" stroke="rgb(115, 161, 191)" stroke-width="1" d="M374 -12C389,-12,389,14,404 14L507 14" transform="translate( 0 0 )"></path><path id="kity_path_48" fill="none" stroke="rgb(115, 161, 191)" stroke-width="1" d="M374 -12C389,-12,389,66,404 66L493 66" transform="translate( 0 0 )"></path><path id="kity_path_50" fill="none" stroke="rgb(115, 161, 191)" stroke-width="1" d="M284 0C299,0,299,118,314 118L389 118" transform="translate( 0 0 )"></path><path id="kity_path_52" fill="none" stroke="rgb(115, 161, 191)" stroke-width="1" d="M284 0C299,0,299,170,314 170L377 170" transform="translate( 0 0 )"></path><path id="kity_path_54" fill="none" stroke="rgb(115, 161, 191)" stroke-width="1" d="M284 0C299,0,299,222,314 222L408 222" transform="translate( 0 0 )"></path><path id="kity_path_56" fill="none" stroke="rgb(115, 161, 191)" stroke-width="1" d="M284 0C299,0,299,274,314 274L416 274" transform="translate( 0 0 )"></path><path id="kity_path_58" fill="none" stroke="rgb(115, 161, 191)" stroke-width="1" marker-end="url(#kity_marker_0)" d="M27 0A189,217,0,0,0,-162 -217" transform="translate( 0 0 )"></path><path id="kity_path_60" fill="none" stroke="rgb(115, 161, 191)" stroke-width="1" d="M-242 -217C-258,-217,-258,-263,-274 -263L-360 -263" transform="translate( 0 0 )"></path><path id="kity_path_62" fill="none" stroke="rgb(115, 161, 191)" stroke-width="1" d="M-360 -263C-375,-263,-375,-371,-390 -371L-492 -371" transform="translate( 0 0 )"></path><path id="kity_path_64" fill="none" stroke="rgb(115, 161, 191)" stroke-width="1" d="M-360 -263C-375,-263,-375,-319,-390 -319L-560 -319" transform="translate( 0 0 )"></path><path id="kity_path_66" fill="none" stroke="rgb(115, 161, 191)" stroke-width="1" d="M-360 -263C-375,-263,-375,-267,-390 -267L-540 -267" transform="translate( 0 0 )"></path><path id="kity_path_68" fill="none" stroke="rgb(115, 161, 191)" stroke-width="1" d="M-360 -263C-375,-263,-375,-215,-390 -215L-543 -215" transform="translate( 0 0 )"></path><path id="kity_path_70" fill="none" stroke="rgb(115, 161, 191)" stroke-width="1" d="M-360 -263C-375,-263,-375,-163,-390 -163L-561 -163" transform="translate( 0 0 )"></path><path id="kity_path_72" fill="none" stroke="rgb(115, 161, 191)" stroke-width="1" d="M-242 -217C-269,-217,-269,-183,-296 -183L-357 -183" transform="translate( 0 0 )"></path><path id="kity_path_74" fill="none" stroke="rgb(115, 161, 191)" stroke-width="1" marker-end="url(#kity_marker_0)" d="M27 0A169,189,0,0,1,-142 189" transform="translate( 0 0 )"></path><path id="kity_path_76" fill="none" stroke="rgb(115, 161, 191)" stroke-width="1" d="M-243 189C-258,189,-258,43,-273 43L-368 43" transform="translate( 0 0 )"></path><path id="kity_path_78" fill="none" stroke="rgb(115, 161, 191)" stroke-width="1" d="M-243 189C-258,189,-258,95,-273 95L-380 95" transform="translate( 0 0 )"></path><path id="kity_path_80" fill="none" stroke="rgb(115, 161, 191)" stroke-width="1" d="M-243 189C-258,189,-258,147,-273 147L-373 147" transform="translate( 0 0 )"></path><path id="kity_path_82" fill="none" stroke="rgb(115, 161, 191)" stroke-width="1" d="M-243 189C-258,189,-258,199,-273 199L-372 199" transform="translate( 0 0 )"></path><path id="kity_path_84" fill="none" stroke="rgb(115, 161, 191)" stroke-width="1" d="M-243 189C-258,189,-258,251,-273 251L-433 251" transform="translate( 0 0 )"></path><path id="kity_path_86" fill="none" stroke="rgb(115, 161, 191)" stroke-width="1" d="M-243 189C-258,189,-258,303,-273 303L-411 303" transform="translate( 0 0 )"></path><path id="kity_path_88" fill="none" stroke="rgb(115, 161, 191)" stroke-width="1" d="M-243 189C-258,189,-258,363,-273 363L-419 363" transform="translate( 0 0 )"></path></g><g id="minder_node_1" transform="matrix( 1 0 0 1 0 0 )"><path id="node_outline_1" fill="rgb(115, 161, 191)" stroke="rgb(115, 161, 191)" d="M-19,-20h92a5,5,0,0,1,5,5v30a5,5,0,0,1,-5,5h-92a5,5,0,0,1,-5,-5v-30a5,5,0,0,1,5,-5z"></path><g id="node_text_1" transform="translate( 0 -2.4 )" fill="white"><text id="kity_text_21" text-rendering="inherit" dominant-baseline="text-before-edge" dy="0" font-size="16" y="-8">Object</text></g></g><g id="kity_g_13"><path id="kity_path_14" fill="none" stroke="none" d="M0,0h0v0h0z"></path></g><g id="kity_g_15"><path id="kity_path_16" fill="none" stroke="none" d="M0,0h0v0h0z"></path><path id="kity_path_17" fill="none" stroke="none"></path></g><g id="minder_node_4" transform="matrix( 1 0 0 1 218 0 )"><g id="node_expander_13" transform="translate( -27 0 )" style="cursor: pointer;"><path id="kity_path_223" fill="white" stroke="gray" d="M6,0A6,6,0,1,1,-6,0A6,6,0,1,1,6,0"></path><path id="kity_path_224" fill="none" stroke="gray" d="M-4.5,0L4.5,0"></path></g><path id="node_outline_14" fill="rgb(238, 243, 246)" stroke="rgb(115, 161, 191)" d="M-17,-13h80a3,3,0,0,1,3,3v20a3,3,0,0,1,-3,3h-80a3,3,0,0,1,-3,-3v-20a3,3,0,0,1,3,-3z" stroke-width="1"></path><g id="node_text_14" transform="translate( 0 -2.1 )" fill="black"><text id="kity_text_114" text-rendering="inherit" dominant-baseline="text-before-edge" dy="0" font-size="14" y="-7">Global</text></g></g><g id="minder_node_5" transform="matrix( 1 0 0 1 334 -260 )"><g id="node_expander_1" display="none" transform="translate( -16 0 )" style="cursor: pointer;"><path id="kity_path_187" fill="white" stroke="gray" d="M6,0A6,6,0,1,1,-6,0A6,6,0,1,1,6,0"></path><path id="kity_path_188" fill="none" stroke="gray"></path></g><path id="node_outline_2" fill="transparent" stroke="none" d="M-5,-11h56a5,5,0,0,1,5,5v12a5,5,0,0,1,-5,5h-56a5,5,0,0,1,-5,-5v-12a5,5,0,0,1,5,-5z"></path><g id="node_text_2" transform="translate( 0 -1.7999999999999998 )" fill="black"><text id="kity_text_90" text-rendering="inherit" dominant-baseline="text-before-edge" dy="0" font-size="12" y="-6">console</text></g></g><g id="minder_node_6" transform="matrix( 1 0 0 1 334 -208 )"><g id="node_expander_2" display="none" transform="translate( -16 0 )" style="cursor: pointer;"><path id="kity_path_190" fill="white" stroke="gray" d="M6,0A6,6,0,1,1,-6,0A6,6,0,1,1,6,0"></path><path id="kity_path_191" fill="none" stroke="gray"></path></g><path id="node_outline_3" fill="transparent" stroke="none" d="M-5,-11h55a5,5,0,0,1,5,5v12a5,5,0,0,1,-5,5h-55a5,5,0,0,1,-5,-5v-12a5,5,0,0,1,5,-5z"></path><g id="node_text_3" transform="translate( 0 -1.7999999999999998 )" fill="black"><text id="kity_text_92" text-rendering="inherit" dominant-baseline="text-before-edge" dy="0" font-size="12" y="-6">module</text></g></g><g id="minder_node_7" transform="matrix( 1 0 0 1 334 -156 )"><g id="node_expander_3" display="none" transform="translate( -16 0 )" style="cursor: pointer;"><path id="kity_path_193" fill="white" stroke="gray" d="M6,0A6,6,0,1,1,-6,0A6,6,0,1,1,6,0"></path><path id="kity_path_194" fill="none" stroke="gray"></path></g><path id="node_outline_4" fill="transparent" stroke="none" d="M-5,-11h51a5,5,0,0,1,5,5v12a5,5,0,0,1,-5,5h-51a5,5,0,0,1,-5,-5v-12a5,5,0,0,1,5,-5z"></path><g id="node_text_4" transform="translate( 0 -1.7999999999999998 )" fill="black"><text id="kity_text_94" text-rendering="inherit" dominant-baseline="text-before-edge" dy="0" font-size="12" y="-6">require</text></g></g><g id="minder_node_8" transform="matrix( 1 0 0 1 334 -26 )"><g id="node_expander_8" transform="translate( -16 0 )" style="cursor: pointer;"><path id="kity_path_208" fill="white" stroke="gray" d="M6,0A6,6,0,1,1,-6,0A6,6,0,1,1,6,0"></path><path id="kity_path_209" fill="none" stroke="gray" d="M-4.5,0L4.5,0"></path></g><path id="node_outline_9" fill="transparent" stroke="none" d="M-5,-11h40a5,5,0,0,1,5,5v12a5,5,0,0,1,-5,5h-40a5,5,0,0,1,-5,-5v-12a5,5,0,0,1,5,-5z"></path><g id="node_text_9" transform="translate( 0 -1.7999999999999998 )" fill="black"><text id="kity_text_104" text-rendering="inherit" dominant-baseline="text-before-edge" dy="0" font-size="12" y="-6">Timer</text></g></g><g id="minder_node_9" transform="matrix( 1 0 0 1 424 -104 )"><g id="node_expander_4" display="none" transform="translate( -16 0 )" style="cursor: pointer;"><path id="kity_path_196" fill="white" stroke="gray" d="M6,0A6,6,0,1,1,-6,0A6,6,0,1,1,6,0"></path><path id="kity_path_197" fill="none" stroke="gray"></path></g><path id="node_outline_5" fill="transparent" stroke="none" d="M-5,-11h86a5,5,0,0,1,5,5v12a5,5,0,0,1,-5,5h-86a5,5,0,0,1,-5,-5v-12a5,5,0,0,1,5,-5z"></path><g id="node_text_5" transform="translate( 0 -1.7999999999999998 )" fill="black"><text id="kity_text_96" text-rendering="inherit" dominant-baseline="text-before-edge" dy="0" font-size="12" y="-6">clearTimeout</text></g></g><g id="minder_node_10" transform="matrix( 1 0 0 1 424 -52 )"><g id="node_expander_5" display="none" transform="translate( -16 0 )" style="cursor: pointer;"><path id="kity_path_199" fill="white" stroke="gray" d="M6,0A6,6,0,1,1,-6,0A6,6,0,1,1,6,0"></path><path id="kity_path_200" fill="none" stroke="gray"></path></g><path id="node_outline_6" fill="transparent" stroke="none" d="M-5,-11h73a5,5,0,0,1,5,5v12a5,5,0,0,1,-5,5h-73a5,5,0,0,1,-5,-5v-12a5,5,0,0,1,5,-5z"></path><g id="node_text_6" transform="translate( 0 -1.7999999999999998 )" fill="black"><text id="kity_text_98" text-rendering="inherit" dominant-baseline="text-before-edge" dy="0" font-size="12" y="-6">setTImeout</text></g></g><g id="minder_node_11" transform="matrix( 1 0 0 1 424 0 )"><g id="node_expander_6" display="none" transform="translate( -16 0 )" style="cursor: pointer;"><path id="kity_path_202" fill="white" stroke="gray" d="M6,0A6,6,0,1,1,-6,0A6,6,0,1,1,6,0"></path><path id="kity_path_203" fill="none" stroke="gray"></path></g><path id="node_outline_7" fill="transparent" stroke="none" d="M-5,-11h83a5,5,0,0,1,5,5v12a5,5,0,0,1,-5,5h-83a5,5,0,0,1,-5,-5v-12a5,5,0,0,1,5,-5z"></path><g id="node_text_7" transform="translate( 0 -1.7999999999999998 )" fill="black"><text id="kity_text_100" text-rendering="inherit" dominant-baseline="text-before-edge" dy="0" font-size="12" y="-6">clearInterval</text></g></g><g id="minder_node_12" transform="matrix( 1 0 0 1 424 52 )"><g id="node_expander_7" display="none" transform="translate( -16 0 )" style="cursor: pointer;"><path id="kity_path_205" fill="white" stroke="gray" d="M6,0A6,6,0,1,1,-6,0A6,6,0,1,1,6,0"></path><path id="kity_path_206" fill="none" stroke="gray"></path></g><path id="node_outline_8" fill="transparent" stroke="none" d="M-5,-11h69a5,5,0,0,1,5,5v12a5,5,0,0,1,-5,5h-69a5,5,0,0,1,-5,-5v-12a5,5,0,0,1,5,-5z"></path><g id="node_text_8" transform="translate( 0 -1.7999999999999998 )" fill="black"><text id="kity_text_102" text-rendering="inherit" dominant-baseline="text-before-edge" dy="0" font-size="12" y="-6">setInterval</text></g></g><g id="minder_node_13" transform="matrix( 1 0 0 1 334 104 )"><g id="node_expander_9" display="none" transform="translate( -16 0 )" style="cursor: pointer;"><path id="kity_path_211" fill="white" stroke="gray" d="M6,0A6,6,0,1,1,-6,0A6,6,0,1,1,6,0"></path><path id="kity_path_212" fill="none" stroke="gray"></path></g><path id="node_outline_10" fill="transparent" stroke="none" d="M-5,-11h55a5,5,0,0,1,5,5v12a5,5,0,0,1,-5,5h-55a5,5,0,0,1,-5,-5v-12a5,5,0,0,1,5,-5z"></path><g id="node_text_10" transform="translate( 0 -1.7999999999999998 )" fill="black"><text id="kity_text_106" text-rendering="inherit" dominant-baseline="text-before-edge" dy="0" font-size="12" y="-6">process</text></g></g><g id="minder_node_14" transform="matrix( 1 0 0 1 334 156 )"><g id="node_expander_10" display="none" transform="translate( -16 0 )" style="cursor: pointer;"><path id="kity_path_214" fill="white" stroke="gray" d="M6,0A6,6,0,1,1,-6,0A6,6,0,1,1,6,0"></path><path id="kity_path_215" fill="none" stroke="gray"></path></g><path id="node_outline_11" fill="transparent" stroke="none" d="M-5,-11h43a5,5,0,0,1,5,5v12a5,5,0,0,1,-5,5h-43a5,5,0,0,1,-5,-5v-12a5,5,0,0,1,5,-5z"></path><g id="node_text_11" transform="translate( 0 -1.7999999999999998 )" fill="black"><text id="kity_text_108" text-rendering="inherit" dominant-baseline="text-before-edge" dy="0" font-size="12" y="-6">Buffer</text></g></g><g id="minder_node_15" transform="matrix( 1 0 0 1 334 208 )"><g id="node_expander_11" display="none" transform="translate( -16 0 )" style="cursor: pointer;"><path id="kity_path_217" fill="white" stroke="gray" d="M6,0A6,6,0,1,1,-6,0A6,6,0,1,1,6,0"></path><path id="kity_path_218" fill="none" stroke="gray"></path></g><path id="node_outline_12" fill="transparent" stroke="none" d="M-5,-11h74a5,5,0,0,1,5,5v12a5,5,0,0,1,-5,5h-74a5,5,0,0,1,-5,-5v-12a5,5,0,0,1,5,-5z"></path><g id="node_text_12" transform="translate( 0 -1.7999999999999998 )" fill="black"><text id="kity_text_110" text-rendering="inherit" dominant-baseline="text-before-edge" dy="0" font-size="12" y="-6">ArrayBuffer</text></g></g><g id="minder_node_16" transform="matrix( 1 0 0 1 334 260 )"><g id="node_expander_12" display="none" transform="translate( -16 0 )" style="cursor: pointer;"><path id="kity_path_220" fill="white" stroke="gray" d="M6,0A6,6,0,1,1,-6,0A6,6,0,1,1,6,0"></path><path id="kity_path_221" fill="none" stroke="gray"></path></g><path id="node_outline_13" fill="transparent" stroke="none" d="M-5,-11h82a5,5,0,0,1,5,5v12a5,5,0,0,1,-5,5h-82a5,5,0,0,1,-5,-5v-12a5,5,0,0,1,5,-5z"></path><g id="node_text_13" transform="translate( 0 -1.7999999999999998 )" fill="black"><text id="kity_text_112" text-rendering="inherit" dominant-baseline="text-before-edge" dy="0" font-size="12" y="-6">Float32Array</text></g></g><g id="minder_node_17" transform="matrix( 1 0 0 1 -222 -217 )"><g id="node_expander_21" transform="translate( 0 0 )" style="cursor: pointer;"><path id="kity_path_247" fill="white" stroke="gray" d="M6,0A6,6,0,1,1,-6,0A6,6,0,1,1,6,0"></path><path id="kity_path_248" fill="none" stroke="gray" d="M-4.5,0L4.5,0"></path></g><path id="node_outline_22" fill="rgb(238, 243, 246)" stroke="rgb(115, 161, 191)" d="M-17,-13h72a3,3,0,0,1,3,3v20a3,3,0,0,1,-3,3h-72a3,3,0,0,1,-3,-3v-20a3,3,0,0,1,3,-3z" stroke-width="1"></path><g id="node_text_22" transform="translate( 0 -2.1 )" fill="black"><text id="kity_text_130" text-rendering="inherit" dominant-baseline="text-before-edge" dy="0" font-size="14" y="-7">Types</text></g></g><g id="minder_node_18" transform="matrix( 1 0 0 1 -325 -281 )"><g id="node_expander_19" transform="translate( 0 0 )" style="cursor: pointer;"><path id="kity_path_241" fill="white" stroke="gray" d="M6,0A6,6,0,1,1,-6,0A6,6,0,1,1,6,0"></path><path id="kity_path_242" fill="none" stroke="gray" d="M-4.5,0L4.5,0"></path></g><path id="node_outline_20" fill="#fac75b" stroke="none" d="M-30,-15h66a5,5,0,0,1,5,5v20a5,5,0,0,1,-5,5h-66a5,5,0,0,1,-5,-5v-20a5,5,0,0,1,5,-5z"></path><g id="node_text_20" transform="translate( 0 -1.7999999999999998 )" fill="black"><text id="kity_text_126" text-rendering="inherit" dominant-baseline="text-before-edge" dy="0" font-size="12" y="-6">Array</text></g><g id="node_priority_1" transform="translate( -25 -10 )"><path id="kity_path_149" fill="#840023" stroke="none" d="M0,13c0,3.866,3.134,7,7,7h6c3.866,0,7-3.134,7-7V7H0V13z" transform="translate( 0.5 0.5 )"></path><path id="kity_path_150" fill="#FF1200" stroke="none" d="M20,10c0,3.866-3.134,7-7,7H7c-3.866,0-7-3.134-7-7V7c0-3.866,3.134-7,7-7h6c3.866,0,7,3.134,7,7V10z" opacity="0.8" transform="translate( 0.5 0.5 )"></path><text id="kity_text_151" text-rendering="geometricPrecision" x="9.5" y="8.5" text-anchor="middle" font-style="italic" font-size="14" fill="white" dy="5">1</text></g></g><g id="minder_node_19" transform="matrix( 1 0 0 1 -482 -385 )"><g id="node_expander_14" display="none" transform="translate( 88 0 )" style="cursor: pointer;"><path id="kity_path_226" fill="white" stroke="gray" d="M6,0A6,6,0,1,1,-6,0A6,6,0,1,1,6,0"></path><path id="kity_path_227" fill="none" stroke="gray"></path></g><path id="node_outline_15" fill="transparent" stroke="none" d="M-5,-11h82a5,5,0,0,1,5,5v12a5,5,0,0,1,-5,5h-82a5,5,0,0,1,-5,-5v-12a5,5,0,0,1,5,-5z"></path><g id="node_text_15" transform="translate( 0 -1.7999999999999998 )" fill="black"><text id="kity_text_116" text-rendering="inherit" dominant-baseline="text-before-edge" dy="0" font-size="12" y="-6">Array.isArray</text></g></g><g id="minder_node_20" transform="matrix( 1 0 0 1 -550 -333 )"><g id="node_expander_15" display="none" transform="translate( 156 0 )" style="cursor: pointer;"><path id="kity_path_229" fill="white" stroke="gray" d="M6,0A6,6,0,1,1,-6,0A6,6,0,1,1,6,0"></path><path id="kity_path_230" fill="none" stroke="gray"></path></g><path id="node_outline_16" fill="transparent" stroke="none" d="M-5,-11h150a5,5,0,0,1,5,5v12a5,5,0,0,1,-5,5h-150a5,5,0,0,1,-5,-5v-12a5,5,0,0,1,5,-5z"></path><g id="node_text_16" transform="translate( 0 -1.7999999999999998 )" fill="black"><text id="kity_text_118" text-rendering="inherit" dominant-baseline="text-before-edge" dy="0" font-size="12" y="-6">Array.prototype.forEach</text></g></g><g id="minder_node_21" transform="matrix( 1 0 0 1 -530 -281 )"><g id="node_expander_16" display="none" transform="translate( 136 0 )" style="cursor: pointer;"><path id="kity_path_232" fill="white" stroke="gray" d="M6,0A6,6,0,1,1,-6,0A6,6,0,1,1,6,0"></path><path id="kity_path_233" fill="none" stroke="gray"></path></g><path id="node_outline_17" fill="transparent" stroke="none" d="M-5,-11h130a5,5,0,0,1,5,5v12a5,5,0,0,1,-5,5h-130a5,5,0,0,1,-5,-5v-12a5,5,0,0,1,5,-5z"></path><g id="node_text_17" transform="translate( 0 -1.7999999999999998 )" fill="black"><text id="kity_text_120" text-rendering="inherit" dominant-baseline="text-before-edge" dy="0" font-size="12" y="-6">Array.prototype.filter</text></g></g><g id="minder_node_22" transform="matrix( 1 0 0 1 -533 -229 )"><g id="node_expander_17" display="none" transform="translate( 139 0 )" style="cursor: pointer;"><path id="kity_path_235" fill="white" stroke="gray" d="M6,0A6,6,0,1,1,-6,0A6,6,0,1,1,6,0"></path><path id="kity_path_236" fill="none" stroke="gray"></path></g><path id="node_outline_18" fill="transparent" stroke="none" d="M-5,-11h133a5,5,0,0,1,5,5v12a5,5,0,0,1,-5,5h-133a5,5,0,0,1,-5,-5v-12a5,5,0,0,1,5,-5z"></path><g id="node_text_18" transform="translate( 0 -1.7999999999999998 )" fill="black"><text id="kity_text_122" text-rendering="inherit" dominant-baseline="text-before-edge" dy="0" font-size="12" y="-6">Array.prototype.map</text></g></g><g id="minder_node_23" transform="matrix( 1 0 0 1 -551 -177 )"><g id="node_expander_18" display="none" transform="translate( 157 0 )" style="cursor: pointer;"><path id="kity_path_238" fill="white" stroke="gray" d="M6,0A6,6,0,1,1,-6,0A6,6,0,1,1,6,0"></path><path id="kity_path_239" fill="none" stroke="gray"></path></g><path id="node_outline_19" fill="transparent" stroke="none" d="M-5,-11h151a5,5,0,0,1,5,5v12a5,5,0,0,1,-5,5h-151a5,5,0,0,1,-5,-5v-12a5,5,0,0,1,5,-5z"></path><g id="node_text_19" transform="translate( 0 -1.7999999999999998 )" fill="black"><text id="kity_text_124" text-rendering="inherit" dominant-baseline="text-before-edge" dy="0" font-size="12" y="-6">Array.prototype.indexOf</text></g></g><g id="minder_node_24" transform="matrix( 1 0 0 1 -347 -197 )"><g id="node_expander_20" display="none" transform="translate( 0 0 )" style="cursor: pointer;"><path id="kity_path_244" fill="white" stroke="gray" d="M6,0A6,6,0,1,1,-6,0A6,6,0,1,1,6,0"></path><path id="kity_path_245" fill="none" stroke="gray"></path></g><path id="node_outline_21" fill="transparent" stroke="none" d="M-5,-11h41a5,5,0,0,1,5,5v12a5,5,0,0,1,-5,5h-41a5,5,0,0,1,-5,-5v-12a5,5,0,0,1,5,-5z"></path><g id="node_text_21" transform="translate( 0 -1.7999999999999998 )" fill="black"><text id="kity_text_128" text-rendering="inherit" dominant-baseline="text-before-edge" dy="0" font-size="12" y="-6">String</text></g></g><g id="minder_node_25" transform="matrix( 1 0 0 1 -223 189 )"><g id="node_expander_29" transform="translate( 0 0 )" style="cursor: pointer;"><path id="kity_path_271" fill="white" stroke="gray" d="M6,0A6,6,0,1,1,-6,0A6,6,0,1,1,6,0"></path><path id="kity_path_272" fill="none" stroke="gray" d="M-4.5,0L4.5,0"></path></g><path id="node_outline_30" fill="rgb(238, 243, 246)" stroke="rgb(115, 161, 191)" d="M-17,-13h93a3,3,0,0,1,3,3v20a3,3,0,0,1,-3,3h-93a3,3,0,0,1,-3,-3v-20a3,3,0,0,1,3,-3z" stroke-width="1"></path><g id="node_text_30" transform="translate( 0 -2.1 )" fill="black"><text id="kity_text_146" text-rendering="inherit" dominant-baseline="text-before-edge" dy="0" font-size="14" y="-7">Methods</text></g></g><g id="minder_node_26" transform="matrix( 1 0 0 1 -358 29 )"><g id="node_expander_22" display="none" transform="translate( 81 0 )" style="cursor: pointer;"><path id="kity_path_250" fill="white" stroke="gray" d="M6,0A6,6,0,1,1,-6,0A6,6,0,1,1,6,0"></path><path id="kity_path_251" fill="none" stroke="gray"></path></g><path id="node_outline_23" fill="transparent" stroke="none" d="M-5,-11h75a5,5,0,0,1,5,5v12a5,5,0,0,1,-5,5h-75a5,5,0,0,1,-5,-5v-12a5,5,0,0,1,5,-5z"></path><g id="node_text_23" transform="translate( 0 -1.7999999999999998 )" fill="black"><text id="kity_text_132" text-rendering="inherit" dominant-baseline="text-before-edge" dy="0" font-size="12" y="-6">Object.call</text></g></g><g id="minder_node_27" transform="matrix( 1 0 0 1 -370 81 )"><g id="node_expander_23" display="none" transform="translate( 93 0 )" style="cursor: pointer;"><path id="kity_path_253" fill="white" stroke="gray" d="M6,0A6,6,0,1,1,-6,0A6,6,0,1,1,6,0"></path><path id="kity_path_254" fill="none" stroke="gray"></path></g><path id="node_outline_24" fill="transparent" stroke="none" d="M-5,-11h87a5,5,0,0,1,5,5v12a5,5,0,0,1,-5,5h-87a5,5,0,0,1,-5,-5v-12a5,5,0,0,1,5,-5z"></path><g id="node_text_24" transform="translate( 0 -1.7999999999999998 )" fill="black"><text id="kity_text_134" text-rendering="inherit" dominant-baseline="text-before-edge" dy="0" font-size="12" y="-6">Object.apply</text></g></g><g id="minder_node_28" transform="matrix( 1 0 0 1 -363 133 )"><g id="node_expander_24" display="none" transform="translate( 86 0 )" style="cursor: pointer;"><path id="kity_path_256" fill="white" stroke="gray" d="M6,0A6,6,0,1,1,-6,0A6,6,0,1,1,6,0"></path><path id="kity_path_257" fill="none" stroke="gray"></path></g><path id="node_outline_25" fill="transparent" stroke="none" d="M-5,-11h80a5,5,0,0,1,5,5v12a5,5,0,0,1,-5,5h-80a5,5,0,0,1,-5,-5v-12a5,5,0,0,1,5,-5z"></path><g id="node_text_25" transform="translate( 0 -1.7999999999999998 )" fill="black"><text id="kity_text_136" text-rendering="inherit" dominant-baseline="text-before-edge" dy="0" font-size="12" y="-6">Object.bind</text></g></g><g id="minder_node_29" transform="matrix( 1 0 0 1 -362 185 )"><g id="node_expander_25" display="none" transform="translate( 85 0 )" style="cursor: pointer;"><path id="kity_path_259" fill="white" stroke="gray" d="M6,0A6,6,0,1,1,-6,0A6,6,0,1,1,6,0"></path><path id="kity_path_260" fill="none" stroke="gray"></path></g><path id="node_outline_26" fill="transparent" stroke="none" d="M-5,-11h79a5,5,0,0,1,5,5v12a5,5,0,0,1,-5,5h-79a5,5,0,0,1,-5,-5v-12a5,5,0,0,1,5,-5z"></path><g id="node_text_26" transform="translate( 0 -1.7999999999999998 )" fill="black"><text id="kity_text_138" text-rendering="inherit" dominant-baseline="text-before-edge" dy="0" font-size="12" y="-6">Object.keys</text></g></g><g id="minder_node_30" transform="matrix( 1 0 0 1 -423 237 )"><g id="node_expander_26" display="none" transform="translate( 146 0 )" style="cursor: pointer;"><path id="kity_path_262" fill="white" stroke="gray" d="M6,0A6,6,0,1,1,-6,0A6,6,0,1,1,6,0"></path><path id="kity_path_263" fill="none" stroke="gray"></path></g><path id="node_outline_27" fill="transparent" stroke="none" d="M-5,-11h140a5,5,0,0,1,5,5v12a5,5,0,0,1,-5,5h-140a5,5,0,0,1,-5,-5v-12a5,5,0,0,1,5,-5z"></path><g id="node_text_27" transform="translate( 0 -1.7999999999999998 )" fill="black"><text id="kity_text_140" text-rendering="inherit" dominant-baseline="text-before-edge" dy="0" font-size="12" y="-6">Object.defineProperty</text></g></g><g id="minder_node_31" transform="matrix( 1 0 0 1 -401 289 )"><g id="node_expander_27" display="none" transform="translate( 124 0 )" style="cursor: pointer;"><path id="kity_path_265" fill="white" stroke="gray" d="M6,0A6,6,0,1,1,-6,0A6,6,0,1,1,6,0"></path><path id="kity_path_266" fill="none" stroke="gray"></path></g><path id="node_outline_28" fill="transparent" stroke="none" d="M-5,-11h118a5,5,0,0,1,5,5v12a5,5,0,0,1,-5,5h-118a5,5,0,0,1,-5,-5v-12a5,5,0,0,1,5,-5z"></path><g id="node_text_28" transform="translate( 0 -1.7999999999999998 )" fill="black"><text id="kity_text_142" text-rendering="inherit" dominant-baseline="text-before-edge" dy="0" font-size="12" y="-6">Object.isExtensible</text></g></g><g id="minder_node_32" transform="matrix( 1 0 0 1 -384 345 )"><g id="node_expander_28" display="none" transform="translate( 107 0 )" style="cursor: pointer;"><path id="kity_path_268" fill="white" stroke="gray" d="M6,0A6,6,0,1,1,-6,0A6,6,0,1,1,6,0"></path><path id="kity_path_269" fill="none" stroke="gray"></path></g><path id="node_outline_29" fill="#fac75b" stroke="none" d="M-30,-15h126a5,5,0,0,1,5,5v20a5,5,0,0,1,-5,5h-126a5,5,0,0,1,-5,-5v-20a5,5,0,0,1,5,-5z"></path><g id="node_text_29" transform="translate( 0 -1.7999999999999998 )" fill="black"><text id="kity_text_144" text-rendering="inherit" dominant-baseline="text-before-edge" dy="0" font-size="12" y="-6">Object.observe</text></g><g id="node_priority_2" transform="translate( -25 -10 )"><path id="kity_path_154" fill="#840023" stroke="none" d="M0,13c0,3.866,3.134,7,7,7h6c3.866,0,7-3.134,7-7V7H0V13z" transform="translate( 0.5 0.5 )"></path><path id="kity_path_155" fill="#FF1200" stroke="none" d="M20,10c0,3.866-3.134,7-7,7H7c-3.866,0-7-3.134-7-7V7c0-3.866,3.134-7,7-7h6c3.866,0,7,3.134,7,7V10z" opacity="0.8" transform="translate( 0.5 0.5 )"></path><text id="kity_text_156" text-rendering="geometricPrecision" x="9.5" y="8.5" text-anchor="middle" font-style="italic" font-size="14" fill="white" dy="5">1</text></g></g></g></g></svg>